HIERARCHY
ROOT Hips
{
	OFFSET 0.00000 0.00000 0.00000
	CHANNELS 6 Xposition Yposition Zposition Zrotation Yrotation Xrotation 
	JOINT LHipJoint
	{
		OFFSET 0 0 0
		CHANNELS 3 Zrotation Yrotation Xrotation
		JOINT LeftHip
		{
			OFFSET 1.36337 -1.57426 1.11036
			CHANNELS 3 Zrotation Yrotation Xrotation
			JOINT LeftKnee
			{
				OFFSET 2.38468 -6.55187 0.00000
				CHANNELS 3 Zrotation Yrotation Xrotation
				JOINT LeftAnkle
				{
					OFFSET 2.37166 -6.51609 0.00000
					CHANNELS 3 Zrotation Yrotation Xrotation
					JOINT LeftToe
					{
						OFFSET 0.29078 -0.79891 2.01393
						CHANNELS 3 Zrotation Yrotation Xrotation
						End Site
						{
							OFFSET 0.00000 -0.00000 1.07924
						}
					}
				}
			}
		}
	}
	JOINT RHipJoint
	{
		OFFSET 0 0 0
		CHANNELS 3 Zrotation Yrotation Xrotation
		JOINT RightHip
		{
			OFFSET -1.36349 -1.57426 1.11036
			CHANNELS 3 Zrotation Yrotation Xrotation
			JOINT RightKnee
			{
				OFFSET -2.29562 -6.30717 0.00000
				CHANNELS 3 Zrotation Yrotation Xrotation
				JOINT RightAnkle
				{
					OFFSET -2.40985 -6.62100 0.00000
					CHANNELS 3 Zrotation Yrotation Xrotation
					JOINT RightToe
					{
						OFFSET -0.23197 -0.63733 1.92232
						CHANNELS 3 Zrotation Yrotation Xrotation
						End Site
						{
							OFFSET -0.00000 -0.00000 1.01562
						}
					}
				}
			}
		}
	}
	JOINT lowerback
	{
		OFFSET 0 0 0
		CHANNELS 3 Zrotation Yrotation Xrotation
		JOINT Chest
		{
			OFFSET -0.08565 2.03602 -0.24562
			CHANNELS 3 Zrotation Yrotation Xrotation
			JOINT Chest2
			{
				OFFSET -0.00036 2.05693 0.00216
				CHANNELS 3 Zrotation Yrotation Xrotation
				JOINT lowerneck
				{
					OFFSET 0 0 0
					CHANNELS 3 Zrotation Yrotation Xrotation
					JOINT Neck
					{
						OFFSET -0.03664 1.69515 0.31789
						CHANNELS 3 Zrotation Yrotation Xrotation
						JOINT Head
						{
							OFFSET 0.00932 1.70181 -0.46013
							CHANNELS 3 Zrotation Yrotation Xrotation
							End Site
							{
								OFFSET 0.01243 1.77620 -0.19377
							}
						}
					}
				}
				JOINT LeftCollar
				{
					OFFSET 0 0 0
					CHANNELS 3 Zrotation Yrotation Xrotation
					JOINT LeftShoulder
					{
						OFFSET 3.74344 0.81315 -0.36647
CHANNELS 3 Zrotation Xrotation Yrotation
						JOINT LeftElbow
						{
OFFSET 0 -4.971850 -0.000000
CHANNELS 3 Zrotation Xrotation Yrotation
							JOINT LeftWrist
							{
OFFSET 0 -3.358110 0.000000
CHANNELS 3 Zrotation Xrotation Yrotation
								JOINT lhand
								{
									OFFSET 0 0 0
CHANNELS 3 Zrotation Xrotation Yrotation
									JOINT LFingers
									{
OFFSET 0 -0.622780 0.000000
CHANNELS 3 Zrotation Xrotation Yrotation
										End Site
										{
OFFSET 0 -0.502100 0.000000
										}
									}
								}
								JOINT LThumb
								{
OFFSET 0 0.000000 0.000000
CHANNELS 3 Zrotation Xrotation Yrotation
									End Site
									{
OFFSET 0 -0.509760 0.509760
									}
								}
							}
						}
					}
				}
				JOINT RightCollar
				{
					OFFSET 0 0 0
					CHANNELS 3 Zrotation Yrotation Xrotation
					JOINT RightShoulder
					{
						OFFSET -3.75385 0.50666 -0.06525
CHANNELS 3 Zrotation Xrotation Yrotation
						JOINT RightElbow
						{
OFFSET 0 -4.964930 -0.000000
CHANNELS 3 Zrotation Xrotation Yrotation
							JOINT RightWrist
							{
OFFSET 0 -3.349290 0.000000
CHANNELS 3 Zrotation Xrotation Yrotation
								JOINT rhand
								{
									OFFSET 0 0 0
CHANNELS 3 Zrotation Xrotation Yrotation
									JOINT RFingers
									{
OFFSET 0 -0.638040 0.000000
CHANNELS 3 Zrotation Xrotation Yrotation
										End Site
										{
OFFSET 0 -0.514410 0.000000
										}
									}
								}
								JOINT RThumb
								{
OFFSET 0 0.000000 0.000000
CHANNELS 3 Zrotation Xrotation Yrotation
									End Site
									{
OFFSET 0 -0.522260 0.522260
									}
								}
							}
						}
					}
				}
			}
		}
	}
}
MOTION
Frames: 7
Frame Time: 0.008333333333333333
38.764204 16.415138 -1.912373 536.994957 60.375823 542.632494 0.000000 0.000000 0.000000 -24.977229 -6.009723 -20.039362 4.934646 13.309774 40.539404 1.189726 -5.304832 -19.543063 1.000572 6.364633 17.846398 0.000000 0.000000 0.000000 11.097896 -4.127843 -25.528724 -5.783163 -14.214496 44.104532 -0.970358 -8.071222 -23.197088 -0.022264 0.958729 -2.635434 -6.027809 2.770271 12.183073 -1.648603 3.665275 7.628049 1.253130 1.920378 0.967659 12.675454 16.318752 -12.689460 -20.472160 27.446608 20.738086 -4.505470 11.699824 14.081663 0.000000 0.000000 0.000000 8.162049 -9.076945 -40.381855 28.399141 -39.481108 10.376486 25.396844 -30.761621 11.018903 0.000000 0.000000 0.000000 -7.125000 0.000000 0.000000 -1.196941 17.817290 -0.773704 0.000000 0.000000 0.000000 -6.222534 -3.107491 32.302764 -25.121249 -36.327503 -8.361682 -13.863945 -13.437699 30.733029 0.000000 0.000000 0.000000 7.125000 0.000000 0.000000 20.436303 60.287650 -7.812768
39.033597 16.408375 -1.962185 535.095664 55.861387 541.117442 0.000000 0.000000 0.000000 -25.997338 -7.586269 -18.336558 4.858500 13.222653 40.207799 1.063643 -6.999163 -18.416537 0.999221 6.356780 17.824816 0.000000 0.000000 0.000000 9.211675 -1.506162 -27.188642 -5.166488 -13.568179 41.535765 -1.003016 -5.835854 -21.892700 -0.069236 1.696080 -4.666544 -6.316746 2.775252 12.494595 -1.918909 3.689716 7.757451 1.117630 1.955173 0.945385 13.090673 16.841961 -12.352047 -20.822817 28.159937 20.026307 -4.501361 12.073923 13.999469 0.000000 0.000000 0.000000 8.041195 -8.889966 -40.229019 29.007521 -40.027277 10.765571 24.820651 -30.816797 12.574354 0.000000 0.000000 0.000000 -7.125000 0.000000 0.000000 -1.691132 16.176435 -1.153432 0.000000 0.000000 0.000000 -6.538588 -3.069215 32.078601 -26.022815 -37.230795 -8.901656 -14.580972 -14.161924 30.379006 0.000000 0.000000 0.000000 7.125000 0.000000 0.000000 19.402201 60.125526 -7.323769
39.293143 16.417585 -2.001135 534.531454 50.860235 540.798379 0.000000 0.000000 0.000000 -26.330168 -9.257124 -16.453791 4.665070 12.996344 39.354857 0.873164 -8.640348 -16.841033 1.283862 7.177141 20.242531 0.000000 0.000000 0.000000 7.500505 1.198069 -28.089732 -4.686608 -13.021085 39.448901 -1.021584 -3.354846 -20.584740 -0.240903 3.096724 -8.553326 -5.875295 2.582455 12.872626 -2.011890 3.519140 7.884858 0.782475 1.912123 0.916047 13.257822 17.194153 -11.766758 -21.354459 28.597006 18.868600 -4.618923 12.352542 13.629642 0.000000 0.000000 0.000000 7.615296 -9.622482 -39.888673 28.444635 -39.522337 10.405440 25.260602 -30.698961 12.606312 0.000000 0.000000 0.000000 -7.125000 0.000000 0.000000 -1.389113 16.092584 -0.950001 0.000000 0.000000 0.000000 -7.293937 -3.074508 32.667002 -26.583916 -37.779367 -9.243115 -14.778033 -14.869522 30.656605 0.000000 0.000000 0.000000 7.125000 0.000000 0.000000 19.405390 60.432307 -7.468196
39.578009 16.425939 -2.009869 534.097112 46.076437 540.726369 0.000000 0.000000 0.000000 -26.362730 -10.602832 -15.191376 4.614631 12.936233 39.130144 0.630126 -10.515488 -14.939330 1.525199 7.797872 22.101807 0.000000 0.000000 0.000000 5.605511 4.649390 -28.174584 -4.191362 -12.409331 37.197958 -0.941095 -1.296079 -18.846938 -0.650212 5.157833 -14.359241 -5.854146 2.753412 13.121012 -1.978774 3.776820 7.903886 0.759351 2.063657 0.790325 12.629741 17.283989 -12.150827 -20.759436 28.540691 18.589512 -4.304452 12.333136 13.340557 0.000000 0.000000 0.000000 7.342017 -9.378813 -39.609621 28.260050 -39.354005 10.288413 25.167660 -30.998262 13.137915 0.000000 0.000000 0.000000 -7.125000 0.000000 0.000000 -1.488684 15.522524 -1.036844 0.000000 0.000000 0.000000 -7.986456 -2.904683 32.465887 -26.795691 -37.983644 -9.373144 -14.277580 -15.158494 30.905366 0.000000 0.000000 0.000000 7.125000 0.000000 0.000000 20.132936 60.546154 -7.815782
39.896534 16.446333 -2.027418 534.948613 39.912426 541.549614 0.000000 0.000000 0.000000 -25.208622 -12.353139 -14.287484 4.663347 12.994347 39.347286 0.333156 -12.813360 -12.828022 1.460132 7.636164 21.614770 0.000000 0.000000 0.000000 4.444133 7.094516 -26.904838 -3.731136 -11.792680 35.003788 -0.896470 2.265391 -17.302663 -0.444828 4.271524 -11.843045 -4.719264 2.342081 13.296879 -1.707120 3.379380 7.890955 0.454377 1.911962 0.732931 13.532542 17.181505 -12.490362 -20.948782 28.338568 18.684319 -4.504361 12.262594 13.595287 0.000000 0.000000 0.000000 6.937015 -8.984389 -38.494992 27.573903 -38.720859 9.856051 25.234075 -30.899888 13.478625 0.000000 0.000000 0.000000 -7.125000 0.000000 0.000000 -1.465973 15.142930 -1.033505 0.000000 0.000000 0.000000 -8.440997 -2.756502 32.129273 -26.583666 -37.779167 -9.242944 -13.543208 -15.197013 31.126567 0.000000 0.000000 0.000000 7.125000 0.000000 0.000000 21.089959 60.576674 -8.221749
40.227844 16.474533 -2.037489 534.458907 33.941708 541.328513 0.000000 0.000000 0.000000 -24.954382 -13.559766 -12.940892 4.595986 12.913757 39.046768 -0.036480 -15.090234 -10.195335 1.658014 8.112903 23.058226 0.000000 0.000000 0.000000 2.326247 9.634790 -25.582599 -3.418467 -11.343132 33.446424 -0.682269 6.624317 -14.803793 -0.620633 5.018531 -13.966023 -4.624369 2.079983 13.769885 -1.734934 3.060189 7.784350 0.388564 1.784993 0.388058 13.308422 16.633392 -12.056833 -20.900002 27.282273 17.738679 -4.766420 11.905617 12.864894 0.000000 0.000000 0.000000 7.238234 -7.904780 -38.224272 27.476281 -38.629455 9.795042 26.876894 -32.701091 12.452558 0.000000 0.000000 0.000000 -7.125000 0.000000 0.000000 -0.262499 16.074827 -0.179514 0.000000 0.000000 0.000000 -8.447232 -2.506682 31.157185 -26.018817 -37.226691 -8.899280 -13.614758 -14.258850 30.951784 0.000000 0.000000 0.000000 7.125000 0.000000 0.000000 20.873408 60.431867 -8.060719
40.579413 16.516254 -2.027965 534.877873 27.477587 542.287025 0.000000 0.000000 0.000000 -23.382178 -15.512306 -12.474377 4.489540 12.784798 38.568228 -0.497340 -17.471098 -6.791992 1.588776 7.945877 22.552622 0.000000 0.000000 0.000000 1.277637 12.499804 -23.944363 -3.170357 -10.965277 32.163394 -0.444372 10.692900 -13.134226 -0.980962 6.304555 -17.670726 -4.068590 1.702267 13.677330 -1.222083 2.625047 7.574489 0.668681 1.577346 0.223256 12.600204 16.069243 -12.852821 -20.618499 26.552777 17.923527 -4.698862 11.534166 12.786548 0.000000 0.000000 0.000000 7.135994 -7.026962 -37.708879 27.026963 -38.203147 9.516507 27.781199 -33.497703 11.721438 0.000000 0.000000 0.000000 -7.125000 0.000000 0.000000 0.420418 16.783816 0.277546 0.000000 0.000000 0.000000 -8.916888 -2.548741 30.146806 -25.154575 -36.360906 -8.381667 -13.739675 -13.396186 30.982926 0.000000 0.000000 0.000000 7.125000 0.000000 0.000000 20.766085 60.490415 -8.046239
